<svg id="SvgjsSvg1011" width="288" height="288" xmlns="http://www.w3.org/2000/svg" version="1.1" xmlns:xlink="http://www.w3.org/1999/xlink" xmlns:svgjs="http://svgjs.com/svgjs"><defs id="SvgjsDefs1012"></defs><g id="SvgjsG1013"><svg xmlns="http://www.w3.org/2000/svg" viewBox="0 0 24 24" width="288" height="288"><path d="M20.5 18.502h-8a.5.5 0 01-.5-.5v-12a.5.5 0 01.5-.5 6.508 6.508 0 016.498 6.342 3.46 3.46 0 011.502-.342c1.93 0 3.5 1.57 3.5 3.5s-1.57 3.5-3.5 3.5zm-7.5-1h7.5c1.379 0 2.5-1.122 2.5-2.5s-1.121-2.5-2.5-2.5a2.49 2.49 0 00-1.72.694.5.5 0 01-.84-.431c.035-.25.06-.502.06-.762 0-2.864-2.2-5.224-5-5.478v10.977zM.5 17.502a.5.5 0 01-.5-.5v-4a.5.5 0 011 0v4a.5.5 0 01-.5.5zM3.5 18.502a.5.5 0 01-.5-.5v-8a.5.5 0 011 0v8a.5.5 0 01-.5.5zM6.5 18.502a.5.5 0 01-.5-.5v-7a.5.5 0 011 0v7a.5.5 0 01-.5.5zM9.5 18.502a.5.5 0 01-.5-.5v-11a.5.5 0 011 0v11a.5.5 0 01-.5.5z" fill="#000000" class="color000 svgShape"></path></svg></g></svg>