<?xml version="1.0" encoding="UTF-8"?><svg xmlns="http://www.w3.org/2000/svg" viewBox="0 0 622.12 522.13"><defs><style>.d{fill:#849c30;}.e{fill:#8db61d;}.f{fill:#3b5309;}.g{fill:#90ad37;}.h{fill:#acca3e;}.i{fill:#536f11;}.j{fill:#73892a;}.k{fill:#749719;}.l{fill:#8eb71e;}.m{fill:#a6c73e;}.n{fill:#1d1d1b;}</style></defs><g id="a"/><g id="b"><g id="c"><path class="n" d="M48.67,373.07c39.69,.07,80.67-6.48,116.42-24.07,42.73-22.23,74.76-60.22,112.58-89.68,8.01-6,17.39-12.58,27.73-15.25,17.44-4.53,35.41-8.76,52.51-14.21,11.46-3.88,23.16-7.57,32.63-15.05,10.59-8.91,25.29-18.68,36.54-26.74,8.19-5.95,16.64-11.8,23.7-18.81,1.06-1.1,1.96-2.18,2.79-3.42,14.41-17.82,30.76-33.61,45.26-51.19,4.46-5.27,8.81-10.62,12.96-16.09,6.44-8.77,13.13-17.63,16.53-27.92,3.18-12.53,5-25.37,7.54-38.08,2.27-10.32,4.55-21.14,10.82-29.9,.34-.46,.99-.55,1.44-.21,.4,.3,.52,.82,.32,1.25-2.82,6.17-4.18,12.88-5.39,19.63-2.74,16.23-4.42,33.05-8,49.15-3.29,11.4-10.23,21.27-16.83,30.81-16.2,22.74-35.35,43.35-53.06,64.75-1.61,1.96-2.77,3.69-4.09,5.63-.8,1.03-1.59,2.02-2.43,2.94-7.5,7.98-16.17,14.35-24.65,20.9-11.49,8.63-26.37,19.42-36.88,28.8-10.3,7.98-22.76,12.67-34.73,16.99-17.35,6.04-35.29,10.77-52.9,15.84-8.15,2.49-14.71,7.59-21.78,13.1-5.2,4.18-10.29,8.7-15.34,13.33-41.85,39.03-80.53,82.07-138.64,97.55-26.06,7.65-52.89,11.65-79.96,12.52l-2.76,.05h-1.4c-6.74,.59-12.84-4.35-12.79-11.34,0-6.42,5.42-11.56,11.83-11.27h0Z"/><path class="n" d="M16.97,428.88c31.83,16.16,67.73,25.55,103.45,26,43.87-.04,85.68-15.72,128.19-25.76,15.03-3.35,30.07-6.86,45.97-4.89,30.29,3.69,60.39,11.25,90.81,11.98,9.06,.01,18-1.14,27.07-2.46,13.16-2.05,26.55-4.69,39.23-8.57,3.11-.97,6.22-2.07,8.81-3.32l2.25-1.19c.88-.45,1.72-.83,2.55-1.2,7.98-3.47,16.14-6.41,24.15-9.5,19.1-7.3,38.13-14.59,56.41-23.63,9.44-4.91,19.24-9.75,26.47-17.51,10.58-12.35,19.44-25.93,29.98-38.41,4.68-5.27,9.76-10.38,16.2-13.49,.63-.3,1.39-.03,1.69,.61,.25,.53,.1,1.15-.33,1.52-5.08,4.27-9.24,9.48-13.35,14.82-10.53,13.51-19.52,28.47-30.71,41.55-7.62,7.64-17.05,12.9-26.29,17.98-6.13,3.28-12.34,6.31-18.6,9.23-20.13,9.5-41.01,17.26-61.21,26.36-.72,.35-1.43,.7-2.06,1.05l-2.26,1.28c-3.53,1.83-6.88,3.08-10.26,4.25-13.38,4.52-26.87,7.57-40.67,10.15-11.21,2.01-22.85,3.71-34.37,3.46-30.33-.61-59.61-7.09-89.58-9.78-12.31-.63-25.62,2.72-37.87,5.85-26.35,7.07-52.46,16.11-79.32,22.35-27.38,6.73-56.74,9.38-84.96,5.49-26.61-3.41-52.59-10.75-77.01-21.81l-2.49-1.17-1.27-.62c-6.31-2.52-9.54-9.68-6.34-15.92,2.91-5.76,10.13-7.9,15.72-4.68h0Z"/><path class="n" d="M287.68,254.08c14.47-7.17,28.4-16.77,38.1-29.82,3.5-4.8,6.11-9.99,7.44-15.6,.29-1.16,.86-4.87,1.1-6.12,3.25-20.36,14.39-38.19,20.19-57.67,1.89-6.72,3.27-13.57,3.52-20.53,.3-3.04-.08-9.76-.11-12.84,.27-24.24,16.76-43.91,30.29-62.42,6.66-9.25,13.8-18.65,16.63-29.86,.04-.16,.2-.26,.36-.22,.15,.04,.25,.19,.22,.34-2.34,11.47-9.14,21.36-15.43,30.99-12.2,18.57-27.38,37.89-26.75,61.08,3.07,27.2-4.22,43.74-13.28,68.37-2.76,7.98-5.14,15.88-6.09,24.17-.33,2.64-.75,6.51-1.4,9.08-5.54,21.42-23.24,36.71-41.05,48.29-1.87,1.23-3.93,2.38-5.87,3.51-.71,.39-1.33,.74-2.16,1.16-3.25,1.66-7.23,.37-8.89-2.87-1.72-3.35-.26-7.5,3.18-9.03h0Z"/><path class="n" d="M389.17,436.96c23.04-6.9,56.34-19.31,72.59-37.2,2.44-2.62,4.5-6.2,6.16-9.36,7.8-14.23,15.19-29.28,25.41-42.23,6.92-8.81,15.7-16.72,26.18-21.13,4.98-2.11,9.61-4.26,14.2-7.08,14.29-8.51,38.63-28.73,44.8-44.07,.22-.81,1.09-1.29,1.9-1.02,.77,.25,1.19,1.06,.97,1.83-.85,2.9-2.24,5.35-3.71,7.71-4.47,6.97-9.98,13.17-15.78,19.03-9.7,9.65-20.5,18.51-32.62,25.12-2.33,1.31-5.11,2.5-7.43,3.65-4.68,2.1-8.91,5.1-12.75,8.51-15.86,14.46-24.03,34.69-33.75,53.55-1.84,3.82-4.11,7.93-6.87,11.14-.79,1.04-2.05,2.34-2.91,3.3-11.92,12.12-27.13,20.21-42.2,27.29-10.14,4.61-20.24,8.62-30.91,12.07-7.49,2.11-10.81-8.75-3.26-11.11h0Z"/><path class="n" d="M93.43,373.77c36.56-46.96,77.92-80.52,91.94-141.17,1.24-5.33,2.65-11.09,3.97-16.4,2.99-12.3,6.85-24.54,11.76-36.2,3.2-7.56,4.11-15.53,4.62-23.67,.38-5.51,.65-11.08,1.12-16.67,.05-.63,.61-1.1,1.24-1.05,.55,.05,.97,.47,1.04,.99,1.39,11.34,2.16,22.65-.17,34.06-1.23,5.64-3.61,10.89-5.64,16.17-3.97,10.3-6.88,20.97-9.14,31.79-2.2,10.9-3.78,22.46-7.02,33.13-3.13,11-7.3,21.72-12.26,32.03-16.73,35.44-44.34,65.93-64.24,98.73-2.98,4.94-9.4,6.53-14.34,3.55-5.32-3.16-6.68-10.42-2.9-15.31h0Z"/><g><path class="e" d="M358.49,154.16s1.09-14.65,18.06-19.68l16.97-5.02s-4.22,11.78-9.69,19.53c-5.47,7.75-23.3,12.81-25.34,5.16Z"/><path class="h" d="M357.61,157.16s4.83-1.37,7.69-3.05,1.69-.72,5.4-3.24,5.75-3.94,8.65-7.12c3-3.28,4.87-6.07,4.87-6.07,0,0-4.23,4.13-5.7,5.4s-3.55,3.21-5.85,4.41c-2.31,1.2-4.49,3.62-9.86,5.66s-6.37,3.07-6.37,3.07l1.17,.95Z"/></g><g><path class="e" d="M481.15,367.36s-10.73-6.53-7.96-21.41l2.78-14.88s7.33,7.8,11.1,14.98,.69,22.73-5.93,21.31Z"/><path class="h" d="M483.09,369.2s.83-4.21,.67-7.04c-.17-2.83,.11-1.57-.37-5.38-.48-3.81-.77-5.91-2.06-9.36s-2.73-6.07-2.73-6.07c0,0,1.5,4.83,1.89,6.44s1.07,3.95,1.08,6.18,1.01,4.82,.47,9.71c-.54,4.88-.14,6.05-.14,6.05l1.18-.52Z"/></g><g><path class="e" d="M535.62,392.41s17.92-1.95,23.37-22.97l5.45-21.02s-14.27,5.67-23.55,12.7c-9.28,7.03-14.73,29.1-5.27,31.29Z"/><path class="h" d="M531.98,393.61s1.48-5.98,3.42-9.56c1.94-3.58,.81-2.11,3.75-6.76s4.6-7.22,8.37-10.91,7.24-6.22,7.24-6.22c0,0-4.89,5.36-6.38,7.22s-3.79,4.48-5.17,7.36-4.25,5.65-6.53,12.32c-2.28,6.67-3.5,7.94-3.5,7.94l-1.21-1.4Z"/></g><g><path class="e" d="M447.05,435.32s8.5-9.37,22.67-3.8l14.17,5.57s-9.1,5.76-16.91,8.13c-7.81,2.37-22.59-3.63-19.93-9.9Z"/><path class="h" d="M444.87,436.89s4,1.62,6.83,2,1.53,.41,5.38,.66,5.99,.37,9.64-.26,6.52-1.55,6.52-1.55c0,0-5.06,.57-6.73,.65s-4.11,.3-6.31-.1c-2.2-.4-4.96,.08-9.68-1.38s-5.95-1.29-5.95-1.29l.29,1.26Z"/></g><g><path class="e" d="M228.91,449.43s8.31,.24,11.58,9.7l3.27,9.46s-6.76-2.08-11.28-4.97-7.83-12.83-3.57-14.18Z"/><path class="h" d="M227.19,449.01s.9,2.69,1.92,4.27,.45,.94,1.97,2.97,2.38,3.15,4.25,4.71,3.56,2.6,3.56,2.6c0,0-2.44-2.28-3.2-3.08s-1.91-1.92-2.64-3.19-2.16-2.44-3.45-5.42-1.9-3.52-1.9-3.52l-.51,.69Z"/></g><g><path class="k" d="M446.55,414.58s10.07-5.01,12.24-20.01c2.23-15.35,.27-15.48,.27-15.48,0,0-7.74,7.21-12.68,14.01-4.9,6.74-6.68,21.65,.17,21.48Z"/><path class="g" d="M444.08,416.56s1.2-4.37,1.94-7.18,.38-1.55,1.63-5.28,1.81-6.08,3.8-9.3c2.05-3.33,3.54-5.57,3.54-5.57,0,0-2.44,4.55-3.15,6.1s-1.59,3.97-2.32,6.13-1.25,4.81-2.5,9.69-2.04,6.01-2.04,6.01l-.9-.59Z"/></g><g><path class="k" d="M346.67,433.51s8.08-1.06,13.11-10.82c5.15-10,3.84-10.55,3.84-10.55,0,0-7.01,3.12-12,6.61s-9.69,13.26-4.96,14.76Z"/><path class="g" d="M344.5,434.29s1.86-2.71,3.03-4.46,.63-.97,2.37-3.23,2.68-3.74,4.8-5.48,3.74-2.98,3.74-2.98c0,0-2.74,2.54-3.6,3.43s-2.03,2.35-3.04,3.65-1.99,3-4,6.05-2.81,3.63-2.81,3.63l-.48-.62Z"/></g><g><path class="k" d="M173.61,262.85s3.99-13.95-8.39-29.08c-12.68-15.49-14.51-13.74-14.51-13.74,0,0,.13,13.65,2.3,24.27,2.15,10.53,14.8,25.21,20.6,18.54Z"/><path class="g" d="M173.35,266.93s-3.11-4.95-5.15-8.1-1.14-1.71-3.61-6.15-4.21-7.02-5.55-11.71-2.22-8.22-2.22-8.22c0,0,2.21,6.28,3.06,8.31s2.4,4.97,3.82,7.55,3.49,5.38,7.06,10.82,3.94,7.17,3.94,7.17l-1.34,.34Z"/></g><g><path class="k" d="M318.55,440.66s-2.26,9.58,4.54,19.38c6.97,10.04,7.99,8.79,7.99,8.79,0,0-.02-9.24-1.18-16.35-1.15-7.05-8.1-16.54-11.35-11.82Z"/><path class="g" d="M318.71,437.89s1.71,3.24,2.82,5.3,.62,1.12,1.98,4.04,2.31,4.6,3.03,7.73,1.2,5.49,1.2,5.49c0,0-1.2-4.17-1.66-5.52s-1.31-3.28-2.09-4.97-1.91-3.52-3.87-7.07c-1.99-3.6-2.16-4.71-2.16-4.71l.75-.28Z"/></g><g><path class="k" d="M190.01,348.67s13.08-7.24,30.91,1.91c18.26,9.36,16.91,11.62,16.91,11.62,0,0-13.68,2.98-24.77,3.19-11,.21-28.44-9.3-23.05-16.72Z"/><path class="g" d="M185.99,349.86s5.63,2.04,9.23,3.39,1.96,.77,6.94,2.27c4.98,1.5,7.94,2.68,12.92,2.97,5.15,.31,8.71,.39,8.71,.39,0,0-6.77-.82-8.98-1.22s-5.49-1.3-8.38-2.16-6.14-2.32-12.36-4.71c-6.3-2.42-8.03-2.38-8.03-2.38l-.05,1.44Z"/></g><g><path class="l" d="M535.77,70.66s7.06-12.79,26.57-14.5c19.98-1.75,24.75,3.56,24.75,3.56,0,0-14.49,6.84-23.56,12.79-8.99,5.89-28.37,7.1-27.77-1.85Z"/><path class="m" d="M533.07,73.74s5.72-1.24,9.4-2c3.68-.75,2.02-.38,6.92-1.73s7.7-2.48,12.24-4.26,9.57-2.66,9.57-2.66c0,0-8.19,1.29-10.23,2.11s-5.23,1.78-8.06,2.57-6.29,1.27-12.67,2.53c-6.48,1.27-7.88,2.21-7.88,2.21l.71,1.22Z"/></g><g><path class="l" d="M438.33,177.7s-9.01-11.28-3.19-29.75c5.96-18.91,12.61-21.27,12.61-21.27,0,0,.77,15.82,2.78,26.35,1.99,10.44-4.25,28.6-12.19,24.67Z"/><path class="m" d="M440.12,181.33s1.03-5.69,1.73-9.34c.7-3.65,.41-1.99,1.03-6.98,.62-4.99,.64-7.97,.74-12.79s1.19-9.75,1.19-9.75c0,0-1.92,7.97-1.94,10.14s-.35,5.45-.7,8.33c-.35,2.89-1.21,6.22-2.48,12.53-1.29,6.4-.96,8.04-.96,8.04l1.38-.19Z"/></g><g><path class="l" d="M139.76,472.41s7.32-.96,12.82,4.88,4.48,8.86,4.48,8.86c0,0-6.53-2.93-11.34-4.34s-10.02-7.33-5.96-9.4Z"/><path class="m" d="M137.75,472.32s1.94,1.53,3.16,2.52,.66,.55,2.45,1.79,2.96,1.85,4.85,2.86,3.5,2.41,3.5,2.41c0,0-2.56-2.31-3.42-2.76s-2.05-1.23-3.09-1.94-2.09-1.7-4.2-3.44-2.89-1.98-2.89-1.98l-.36,.54Z"/></g><g><path class="l" d="M355.24,139.62s-14.25-3.21-21.33-21.47c-7.25-18.7-3.48-24.77-3.48-24.77,0,0,10.61,12,18.85,19.06,8.17,6.99,14.72,25.27,5.96,27.18Z"/><path class="m" d="M358.95,141.36s-2.79-5.15-4.54-8.47c-1.75-3.32-.93-1.83-3.6-6.17-2.66-4.33-4.53-6.7-7.5-10.57s-5.22-8.45-5.22-8.45c0,0,3.53,7.5,4.88,9.24s3.16,4.52,4.72,7.02,2.98,5.68,5.96,11.47,4.32,6.95,4.32,6.95l.98-1.02Z"/></g><g><path class="l" d="M251.7,426.96s-3.55-11.34,7.15-23.55,17.06-12.23,17.06-12.23c0,0-4.55,12.24-6.38,20.84s-12.75,20.38-17.84,14.94Z"/><path class="m" d="M251.94,430.27s2.69-4,4.44-6.55,.98-1.38,3.11-4.97,3.12-5.84,4.77-9.47,4.14-7.02,4.14-7.02c0,0-4.14,5.45-4.87,7.09s-2.06,4.02-3.28,6.1-3.01,4.35-6.09,8.74-3.4,5.8-3.4,5.8l1.17,.29Z"/></g><g><path class="l" d="M545.36,311.36s6.72-6.65,4.33-19.1c-2.44-12.75-6.59-14.78-6.59-14.78,0,0-1.7,10.23-3.8,16.92-2.08,6.64,.59,18.92,6.06,16.96Z"/><path class="m" d="M543.92,313.59s-.24-3.78-.42-6.2-.12-1.33-.14-4.62,.19-5.23,.49-8.37-.04-6.43-.04-6.43c0,0,.64,5.33,.49,6.74s-.18,3.57-.18,5.47,.32,4.14,.66,8.34,.02,5.3,.02,5.3l-.89-.23Z"/></g><g><path class="l" d="M501.6,113.39s4.1-6.62-.21-16.13-8.12-10.57-8.12-10.57c0,0,.61,8.52,.21,14.28s4.12,15.03,8.12,12.42Z"/><path class="m" d="M500.88,115.45s-.92-2.98-1.53-4.89-.35-1.04-1-3.67-.86-4.22-1.22-6.8-1.27-5.14-1.27-5.14c0,0,1.54,4.14,1.69,5.3s.54,2.89,.91,4.41,1.05,3.25,2.14,6.55,1.03,4.24,1.03,4.24h-.75Z"/></g><g><path class="l" d="M384.68,53.41s6.21-8.19,1.74-21.23c-4.58-13.35-9.35-14.91-9.35-14.91,0,0-.27,11.27-1.51,18.81-1.23,7.47,3.53,20.28,9.12,17.34Z"/><path class="m" d="M383.47,56.03s-.83-4.03-1.4-6.62-.33-1.41-.86-4.95-.6-5.66-.75-9.09-1.02-6.92-1.02-6.92c0,0,1.51,5.64,1.56,7.19s.35,3.87,.65,5.92,.97,4.41,1.99,8.88,.83,5.7,.83,5.7l-.99-.11Z"/></g><g><path class="l" d="M195.76,195.48s5.54-11.19-2.77-25.73c-8.51-14.89-14.56-15.65-14.56-15.65,0,0,2.25,13.51,2.5,22.78s8.84,23.39,14.84,18.6Z"/><path class="m" d="M194.92,198.88s-1.92-4.62-3.18-7.57c-1.26-2.95-.72-1.61-2.16-5.71s-2.01-6.62-2.97-10.67c-.99-4.17-2.8-8.02-2.8-8.02,0,0,3.08,6.38,3.5,8.22s1.3,4.54,2.12,6.91,2.17,5.04,4.4,10.14,2.29,6.61,2.29,6.61l-1.2,.1Z"/></g><g><path class="l" d="M389.2,231.24s12.17,8.08,30.26,.57c18.52-7.69,20.31-14.6,20.31-14.6,0,0-16.01,.63-26.8-.46s-28.44,6.82-23.77,14.48Z"/><path class="m" d="M385.38,229.76s5.65-1.54,9.26-2.57c3.61-1.03,1.97-.59,6.94-1.66,4.97-1.07,7.97-1.36,12.82-1.88s9.72-2.07,9.72-2.07c0,0-7.86,2.64-10.05,2.85s-5.46,.84-8.33,1.44-6.16,1.78-12.41,3.62c-6.33,1.87-8.01,1.68-8.01,1.68l.06-1.41Z"/></g><g><path class="l" d="M507.31,413.07s4.61,6.03,14.77,5.41,12.45-3.73,12.45-3.73c0,0-7.97-2.41-13.09-4.77-5.07-2.34-15.13-1.47-14.13,3.08Z"/><path class="m" d="M505.68,411.7s3.04,.2,4.99,.3,1.07,.04,3.69,.36,4.15,.68,6.62,1.25,5.12,.63,5.12,.63c0,0-4.31-.04-5.42-.3s-2.82-.51-4.34-.7-3.33-.17-6.71-.33c-3.43-.16-4.22-.53-4.22-.53l.27-.68Z"/></g><g><path class="l" d="M290.45,267.59s5.38,4.41,14.31,1.73,10.32-5.94,10.32-5.94c0,0-7.61-.47-12.67-1.51s-13.8,1.86-11.96,5.71Z"/><path class="m" d="M288.71,266.7s2.75-.46,4.51-.77,.96-.19,3.37-.45,3.84-.26,6.17-.27,4.7-.51,4.7-.51c0,0-3.85,.87-4.9,.87s-2.62,.13-4.02,.28-3.01,.54-6.05,1.11c-3.09,.58-3.88,.41-3.88,.41l.1-.67Z"/></g><g><path class="l" d="M498.58,352.93s8.45,8.54,24.27,5.52c16.2-3.09,18.79-8.36,18.79-8.36,0,0-12.99-2.17-21.5-4.85s-24.03,.74-21.55,7.68Z"/><path class="m" d="M495.75,351.1s4.8-.3,7.88-.52,1.68-.15,5.87-.18,6.64,.24,10.64,.63,8.17-.04,8.17-.04c0,0-6.77,.81-8.57,.62s-4.53-.24-6.95-.23-5.26,.4-10.59,.84c-5.41,.44-6.73,.02-6.73,.02l.29-1.13Z"/></g><g><path class="l" d="M184.87,232.91s2.76-6.76-2.7-14.89-9.16-8.51-9.16-8.51c0,0,1.89,7.79,2.42,13.18,.53,5.35,6.15,13.27,9.44,10.22Z"/><path class="m" d="M184.52,234.93s-1.31-2.61-2.18-4.28-.49-.91-1.5-3.24-1.45-3.77-2.19-6.1-1.97-4.56-1.97-4.56c0,0,2.07,3.59,2.39,4.64s.95,2.59,1.53,3.94,1.48,2.85,3,5.73,1.62,3.76,1.62,3.76l-.7,.11Z"/></g><g><path class="l" d="M167.11,306.15s13.92,4.42,29.26-7.76,15.51-19.62,15.51-19.62c0,0-15.22,5-25.89,6.93-10.58,1.91-25.47,14.37-18.88,20.45Z"/><path class="m" d="M163.02,305.78s5-3.03,8.19-5.02,1.73-1.11,6.22-3.51,7.29-3.5,11.81-5.33,8.77-4.66,8.77-4.66c0,0-6.83,4.7-8.88,5.51s-5.02,2.31-7.62,3.68-5.44,3.4-10.94,6.89c-5.58,3.53-7.24,3.82-7.24,3.82l-.33-1.37Z"/></g><g><path class="i" d="M509.27,327.64s-12.28-6.28,3.76-25.19c10.26-12.1,10.72-13.03,10.72-13.03,0,0,2.15,11.49,.86,20.53s-3.13,22.39-15.34,17.69Z"/><path class="d" d="M510.97,331.15s.99-4.82,1.6-7.93c.6-3.1,.3-1.7,1.4-5.84s1.54-6.72,3.48-10.34,3.48-6.27,3.48-6.27c0,0-2.34,5.09-3.01,6.82s-1.45,4.41-2.09,6.8-1.02,5.3-2.02,10.69-1.79,6.65-1.79,6.65l-1.03-.59Z"/></g><g><path class="i" d="M220.44,434.16s-17.34,5.11-19.16-27.34c-1.17-20.77-1.57-22.07-1.57-22.07,0,0,12.41,8.99,19.34,18.74,6.94,9.76,17.23,24.11,1.39,30.67Z"/><path class="d" d="M225.22,435.97s-3.41-5.48-5.64-8.98-1.25-1.89-3.94-6.82c-2.7-4.92-4.6-7.78-6.02-12.97s-2.35-9.1-2.35-9.1c0,0,2.37,6.95,3.29,9.2,.92,2.25,2.6,5.5,4.15,8.36,1.55,2.86,3.82,5.96,7.73,11.98s4.3,7.94,4.3,7.94l-1.51,.38Z"/></g><g><path class="i" d="M171.16,462.61s6.19-13.14,26.64,3.1c13.09,10.39,14.08,10.84,14.08,10.84,0,0-12.02,2.65-21.57,1.6-9.56-1.05-23.67-2.53-19.15-15.54Z"/><path class="d" d="M167.51,464.52s5.11,.88,8.4,1.41c3.29,.53,1.8,.26,6.2,1.27,4.39,1.01,7.12,1.39,11,3.31,4,1.98,6.72,3.44,6.72,3.44,0,0-5.44-2.29-7.28-2.94s-4.69-1.38-7.23-1.97c-2.54-.6-5.61-.89-11.32-1.76-5.78-.88-7.06-1.66-7.06-1.66l.58-1.11Z"/></g><g><path class="i" d="M209.16,150.38s-3.32-5.35,7.4-8.97c6.86-2.32,7.26-2.57,7.26-2.57,0,0-1.87,5-4.5,8.23s-6.5,8.02-10.17,3.31Z"/><path class="d" d="M209,152.16s1.52-1.65,2.49-2.72,.52-.59,1.92-1.95,2.18-2.26,3.79-3.22,2.84-1.63,2.84-1.63c0,0-2.11,1.44-2.78,1.96s-1.61,1.38-2.42,2.17-1.65,1.83-3.31,3.7-2.27,2.18-2.27,2.18l-.27-.47Z"/></g><g><path class="i" d="M398.81,29.89s-4.86,1.89-6.18-7.39c-.84-5.94-.99-6.31-.99-6.31,0,0,3.79,2.28,6.02,4.92s5.54,6.51,1.15,8.78Z"/><path class="d" d="M400.23,30.3s-1.11-1.49-1.84-2.44-.4-.51-1.3-1.86-1.51-2.12-2.05-3.58-.9-2.56-.9-2.56c0,0,.85,1.94,1.17,2.56s.88,1.52,1.4,2.3,1.24,1.62,2.51,3.26,1.43,2.18,1.43,2.18l-.43,.15Z"/></g><g><path class="i" d="M349.9,184.14s3.84,3.53,8.45-4.64c2.95-5.23,3.22-5.51,3.22-5.51,0,0-4.36,.74-7.4,2.39s-7.53,4.04-4.27,7.76Z"/><path class="d" d="M348.43,184s1.58-.99,2.6-1.61,.56-.33,1.89-1.26,2.18-1.43,3.21-2.59,1.77-2.05,1.77-2.05c0,0-1.5,1.5-2.02,1.96s-1.38,1.09-2.14,1.63-1.75,1.06-3.53,2.12-2.13,1.51-2.13,1.51l.34,.29Z"/></g><g><path class="i" d="M219.82,305.91s-14.82-7,3.53-30.06c11.74-14.76,12.26-15.88,12.26-15.88,0,0,2.98,13.57,1.78,24.35-1.2,10.79-2.89,26.71-17.57,21.59Z"/><path class="d" d="M221.96,310.02s1-5.77,1.6-9.47,.3-2.03,1.44-6.99c1.15-4.96,1.58-8.04,3.75-12.41s3.9-7.57,3.9-7.57c0,0-2.59,6.14-3.33,8.21s-1.56,5.29-2.23,8.16-1.01,6.33-2,12.77c-1,6.52-1.88,7.97-1.88,7.97l-1.25-.66Z"/></g><g><path class="i" d="M406.14,204.92s-10.88,.86-7.92-18.53c1.89-12.41,1.82-13.23,1.82-13.23,0,0,6.21,6.85,9.09,13.48s7.18,16.38-3,18.29Z"/><path class="d" d="M408.74,206.58s-1.33-3.66-2.21-6-.5-1.27-1.48-4.52-1.75-5.16-1.95-8.41-.26-5.67-.26-5.67c0,0,.54,4.4,.8,5.84s.85,3.57,1.41,5.45,1.51,3.99,3.07,8.04,1.55,5.23,1.55,5.23l-.94,.03Z"/></g><g><path class="i" d="M294.1,428.28s12.61,15.29,34.2-13.07c13.82-18.15,14.97-19.08,14.97-19.08,0,0-16.79,.54-29.08,5.14s-30.45,11.31-20.09,27Z"/><path class="d" d="M288.64,426.98s6.46-2.89,10.63-4.69,2.3-.95,7.77-3.77c5.47-2.81,8.95-4.24,13.43-8.08,4.63-3.97,7.72-6.82,7.72-6.82,0,0-6.43,4.86-8.64,6.34s-5.74,3.4-8.9,5.04c-3.16,1.65-7.13,3.07-14.38,6.14s-8.78,4.57-8.78,4.57l1.14,1.27Z"/></g><g><path class="f" d="M361.4,91.93s11.17-1.31,4.39-17.15c-4.39-10.25-4.55-8.1-4.55-8.1,0,0-4.14,3.45-4.89,9.78s-4.03,15.19,5.06,15.48Z"/><path class="j" d="M361.21,94.68s-.36-3.4-.62-5.59-.16-1.19-.31-4.16-.4-4.77,.11-7.58c.53-2.9,.97-4.89,.97-4.89,0,0-.47,3.87-.55,5.15s-.03,3.23,.05,4.95,.45,3.73,.93,7.5,.22,4.78,.22,4.78l-.81-.17Z"/></g><g><path class="f" d="M331.89,249.15s-2.56,22.9,32.22,16.7c22.5-4.01,18.29-5.33,18.29-5.33,0,0-4.96-9.87-17.26-14.3-12.25-4.41-28.45-15.09-33.24,2.93Z"/><path class="j" d="M326.49,247.49s6.96,.85,11.44,1.35,2.45,.24,8.46,1.31c6,1.07,9.72,1.41,15.08,3.74,5.54,2.41,9.3,4.21,9.3,4.21,0,0-7.5-2.73-10.03-3.49-2.53-.76-6.43-1.55-9.9-2.18-3.48-.64-7.65-.83-15.41-1.62s-9.65-1.77-9.65-1.77l.71-1.54Z"/></g><g><path class="f" d="M413.13,428.25s9.35,7.37,16.11-9.58c4.38-10.96,2.65-9.47,2.65-9.47,0,0-5.68-.51-10.98,3.67-5.27,4.17-14.38,8.37-7.78,15.38Z"/><path class="j" d="M410.93,430.17s2.27-2.82,3.71-4.65,.77-1.01,2.88-3.35,3.27-3.88,5.75-5.6c2.57-1.77,4.38-2.93,4.38-2.93,0,0-3.24,2.55-4.26,3.45s-2.43,2.4-3.66,3.75-2.45,3.13-4.91,6.32c-2.5,3.23-3.41,3.75-3.41,3.75l-.48-.73Z"/></g><g><path class="f" d="M236.93,320.07s2.29,22.7,34.67,9.46c20.95-8.57,16.59-8.97,16.59-8.97,0,0-6.86-8.52-19.69-10.25-12.77-1.72-30.69-8.68-31.57,9.76Z"/><path class="j" d="M231.36,319.59s6.92-.63,11.36-1.08c4.44-.45,2.42-.28,8.46-.5,6.04-.21,9.7-.66,15.38,.48s9.88,2.14,9.88,2.14c0,0-7.83-1.08-10.44-1.29s-6.55-.16-10.04-.05c-3.5,.11-7.57,.79-15.26,1.64-7.79,.86-9.71,.3-9.71,.3l.37-1.64Z"/></g><g><path class="f" d="M150.82,302.84s18.34-5.75,1.9-30.21c-10.63-15.82-10.22-12.16-10.22-12.16,0,0-5.86,7.11-5.1,17.99,.75,10.83-1.94,26.79,13.42,24.38Z"/><path class="j" d="M151.37,307.51s-1.69-5.6-2.82-9.19-.65-1.95-1.85-6.89c-1.2-4.94-2.2-7.89-2.22-12.77s.08-8.52,.08-8.52c0,0,.44,6.65,.72,8.83s.98,5.43,1.67,8.29c.68,2.87,1.94,6.11,3.95,12.31,2.03,6.28,1.9,7.96,1.9,7.96l-1.41-.03Z"/></g><g><path class="f" d="M534.15,27.87s11.74-5.58-1.58-20.42c-8.62-9.6-8-7.18-8-7.18,0,0-3.25,5.31-1.72,12.53,1.53,7.18,1.23,18.13,11.29,15.07Z"/><path class="j" d="M534.96,30.95s-1.66-3.59-2.76-5.89c-1.09-2.29-.62-1.25-1.89-4.44s-2.22-5.08-2.7-8.35-.75-5.71-.75-5.71c0,0,.92,4.41,1.31,5.85s1.17,3.55,1.9,5.4,1.88,3.91,3.81,7.87,2.02,5.16,2.02,5.16l-.95,.12Z"/></g><g><path class="f" d="M205.55,186.38s7.83,10.55,19.94-5.54c7.83-10.42,5.56-9.33,5.56-9.33,0,0-5.9-2.19-12.76,.74-6.83,2.91-17.74,4.76-12.74,14.13Z"/><path class="j" d="M202.65,187.78s3.24-2.35,5.3-3.88,1.12-.85,4.04-2.74,4.6-3.19,7.75-4.3,5.52-1.86,5.52-1.86c0,0-4.19,1.78-5.54,2.44s-3.29,1.85-4.98,2.94-3.51,2.62-7.06,5.31-4.72,3.01-4.72,3.01l-.3-.92Z"/></g><g><path class="f" d="M550.59,314.23s5.35-10.26,18.1,2.07c8.25,7.98,6.12,7.35,6.12,7.35,0,0-4.83,2.72-11.2,1.12s-16.08-1.69-13.03-10.54Z"/><path class="j" d="M547.87,313.4s3.14,1.6,5.14,2.65,1.09,.59,3.89,1.83,4.44,2.14,7.33,2.67,5.06,.85,5.06,.85c0,0-3.89-.97-5.16-1.36s-3.11-1.16-4.74-1.87-3.42-1.8-6.88-3.64-4.52-1.97-4.52-1.97l-.13,.84Z"/></g><g><path class="f" d="M563.55,386.35s10.59-11.52,22.92,9.06c7.98,13.32,5.42,11.74,5.42,11.74,0,0-7.27,1.86-15.02-2.47-7.72-4.31-20.41-7.85-13.32-18.33Z"/><path class="j" d="M560.29,384.32s3.54,3.19,5.79,5.26,1.21,1.15,4.44,3.75,5.05,4.35,8.64,6.06,6.3,2.89,6.3,2.89c0,0-4.74-2.63-6.26-3.59s-3.66-2.61-5.53-4.1-3.83-3.55-7.7-7.17c-3.92-3.67-5.21-4.16-5.21-4.16l-.47,1.05Z"/></g><g><path class="f" d="M605.71,326.48s-9.53-.12-5.21-14.08c2.8-9.03,3.12-7.23,3.12-7.23,0,0,3.8,2.54,4.99,7.82s4.74,12.45-2.9,13.5Z"/><path class="j" d="M606.12,328.78s0-2.9,.03-4.77,.03-1.02-.1-3.54-.08-4.06-.76-6.38-1.25-4.04-1.25-4.04c0,0,.74,3.22,.92,4.3s.31,2.72,.39,4.18-.05,3.18-.12,6.41,.23,4.05,.23,4.05l.67-.21Z"/></g><g><path class="f" d="M353.81,446.66s15.08-11.91,26.03,15.45c7.08,17.7,4.29,15.3,4.29,15.3,0,0-9.17,.84-17.74-5.92-8.52-6.72-23.22-13.5-12.58-24.83Z"/><path class="j" d="M350.25,443.57s3.67,4.56,6,7.51,1.25,1.63,4.65,5.41c3.41,3.78,5.28,6.26,9.3,9.03s7.08,4.73,7.08,4.73c0,0-5.24-4.11-6.89-5.57s-3.93-3.87-5.91-6.05-3.96-5.05-7.94-10.2-5.51-6.05-5.51-6.05l-.77,1.18Z"/></g><g><path class="f" d="M131.82,452.97s-17.68-25.96,28.19-40.65c29.67-9.5,25.43-5.23,25.43-5.23,0,0,.31,15.05-11.69,28.23-11.94,13.12-24.68,36.31-41.92,17.65Z"/><path class="j" d="M126.38,458.4s7.85-5.46,12.93-8.91,2.81-1.85,9.36-6.96c6.55-5.12,10.81-7.89,15.8-14.12s8.53-11,8.53-11c0,0-7.3,8.07-9.87,10.59-2.56,2.52-6.77,5.96-10.54,8.94-3.79,2.98-8.68,5.87-17.54,11.78-8.97,5.99-10.51,8.29-10.51,8.29l1.84,1.4Z"/></g><g><path class="f" d="M482.53,129.87s-16.8,4.6-16.25-22.1c.35-17.27,1.83-14.28,1.83-14.28,0,0,7.95,2.55,12.7,11.21,4.73,8.63,14.6,19.48,1.72,25.16Z"/><path class="j" d="M484.4,133.71s-1.45-5.1-2.35-8.39-.46-1.8-1.97-6.16c-1.51-4.36-2.19-7.09-4.56-10.82s-4.23-6.45-4.23-6.45c0,0,2.92,5.28,3.78,7.08s1.91,4.62,2.79,7.14,1.52,5.61,3.02,11.32c1.53,5.78,2.46,7,2.46,7l1.06-.71Z"/></g><g><path class="i" d="M513.39,89.01s-16.25-2.13-5.84-29.7c6.66-17.64,6.8-18.87,6.8-18.87,0,0,6.99,12.01,9.15,22.63,2.16,10.64,5.43,26.31-10.11,25.93Z"/><path class="d" d="M516.69,92.27s-.81-5.8-1.38-9.51-.34-2.03-.77-7.1c-.43-5.07-.96-8.13-.23-12.96s1.39-8.4,1.39-8.4c0,0-.59,6.63-.65,8.83s.14,5.52,.37,8.45c.24,2.94,.98,6.34,2.01,12.77s.65,8.16,.65,8.16l-1.39-.24Z"/></g><g><path class="i" d="M361.54,115.56s-9.81-12.04,15.3-24.26c16.06-7.82,16.96-8.57,16.96-8.57,0,0-3,12.82-8.42,21.54-5.43,8.73-13.37,21.65-23.83,11.28Z"/><path class="d" d="M361.69,119.96s3.21-4.52,5.24-7.44,1.09-1.62,4.09-5.39c3-3.77,4.63-6.22,8.27-9.08s6.42-4.88,6.42-4.88c0,0-4.72,4.19-6.2,5.66s-3.5,3.89-5.24,6.06c-1.75,2.18-3.45,5-6.92,10.1-3.52,5.17-4.86,6.04-4.86,6.04l-.8-1.07Z"/></g><g><path class="i" d="M180.69,264.28s-5.69-11.64,17.03-16.81c14.54-3.31,15.41-3.75,15.41-3.75,0,0-4.87,9.85-10.93,15.91-6.07,6.07-14.98,15.06-21.51,4.65Z"/><path class="d" d="M179.99,267.88s3.47-3.06,5.67-5.06,1.19-1.11,4.35-3.6c3.16-2.49,4.95-4.18,8.44-5.81s6.15-2.75,6.15-2.75c0,0-4.63,2.51-6.11,3.43s-3.58,2.5-5.41,3.93c-1.84,1.44-3.75,3.41-7.54,6.9s-5.1,3.99-5.1,3.99l-.45-1.02Z"/></g><g><path class="i" d="M470.43,384.87s-4.9-.56-1.91-8.9c1.91-5.34,1.95-5.71,1.95-5.71,0,0,2.16,3.58,2.87,6.76s1.77,7.88-2.91,7.85Z"/><path class="d" d="M471.44,385.83s-.27-1.74-.46-2.85-.11-.61-.27-2.13-.33-2.44-.14-3.9,.37-2.53,.37-2.53c0,0-.14,2-.15,2.66s.07,1.66,.16,2.54,.33,1.9,.67,3.83,.24,2.45,.24,2.45l-.42-.07Z"/></g><g><path class="i" d="M428.57,198.33s4.69-6.29,13.77,4.5c5.81,6.91,6.29,7.25,6.29,7.25,0,0-6.65,.11-11.59-1.47s-12.25-3.88-8.46-10.28Z"/><path class="d" d="M426.43,198.95s2.61,1.02,4.29,1.65,.93,.33,3.14,1.34c2.22,1.01,3.62,1.5,5.47,2.93s3.18,2.54,3.18,2.54c0,0-2.63-1.8-3.54-2.34s-2.34-1.23-3.61-1.82-2.88-1.07-5.8-2.15-3.56-1.64-3.56-1.64l.43-.52Z"/></g><g><path class="i" d="M397.64,450.63s-1.19,16.34,27.91,11.71c18.62-2.96,19.85-2.86,19.85-2.86,0,0-10.35-9.27-20.32-13.53-9.98-4.26-24.67-10.63-27.44,4.67Z"/><path class="d" d="M395.11,446.74s5.51,1.96,9.04,3.27c3.52,1.3,1.92,.74,6.8,2.18,4.88,1.44,7.77,2.58,12.65,2.84,5.03,.27,8.51,.33,8.51,.33,0,0-6.62-.76-8.78-1.14s-5.38-1.25-8.2-2.07c-2.83-.82-6.01-2.24-12.1-4.54s-7.86-2.28-7.86-2.28l-.04,1.41Z"/></g><g><path class="i" d="M510.78,119.13s-1.36,13.84,23.42,10.53c15.86-2.11,16.9-2,16.9-2,0,0-8.58-8.08-16.95-11.91-8.38-3.83-20.7-9.54-23.37,3.38Z"/><path class="d" d="M508.72,115.78s4.63,1.78,7.6,2.96,1.61,.67,5.72,2c4.11,1.33,6.54,2.35,10.67,2.68s7.21,.47,7.21,.47c0,0-5.6-.79-7.43-1.16s-4.53-1.17-6.91-1.93-5.05-2.02-10.17-4.11c-5.19-2.11-6.62-2.1-6.62-2.1l-.07,1.2Z"/></g><g><path class="k" d="M577.27,284.65s3.45-4.74,11.31-4.45c8.05,.3,7.94,1.33,7.94,1.33,0,0-4.37,3.33-8.28,5.25-3.88,1.9-11.66,1.41-10.97-2.13Z"/><path class="g" d="M576.04,285.74s2.34-.21,3.85-.32,.82-.05,2.85-.34,3.27-.36,5.09-1.08,3.16-1.31,3.16-1.31c0,0-2.54,.83-3.4,1.06s-2.17,.45-3.34,.62-2.57,.19-5.18,.37-3.25,.49-3.25,.49l.22,.52Z"/></g><g><path class="k" d="M148.41,331.52s7.67-5.52,19.54-1.11c12.15,4.51,11.48,6.03,11.48,6.03,0,0-8.36,2.89-15.31,3.85s-18.54-3.72-15.71-8.78Z"/><path class="g" d="M145.97,332.57s3.68,.86,6.04,1.44,1.29,.34,4.52,.91,5.18,1.09,8.33,.9,5.49-.41,5.49-.41c0,0-4.31,0-5.73-.09s-3.54-.41-5.42-.73-4.02-1-8.1-2.03-5.22-.89-5.22-.89l.08,.91Z"/></g><g><path class="k" d="M343.36,171.03s1.86-10.35-8.27-20.16-11.57-8.63-11.57-8.63c0,0,1.11,9.79,3.48,17.22,2.35,7.37,12.63,16.84,16.35,11.57Z"/><path class="g" d="M343.47,173.98s-2.63-3.29-4.35-5.38-.95-1.13-3.08-4.11-3.58-4.68-4.91-7.93-2.23-5.71-2.23-5.71c0,0,2.08,4.32,2.84,5.71s2.11,3.36,3.33,5.09,2.93,3.56,5.93,7.16,3.4,4.81,3.4,4.81l-.95,.36Z"/></g><g><path class="k" d="M486.93,413.7s11.62-2.63,17.39-17.53c5.9-15.26,3.9-15.89,3.9-15.89,0,0-9.73,5.48-16.44,11.24-6.66,5.71-12,20.62-4.85,22.18Z"/><path class="g" d="M483.9,415.12s2.27-4.2,3.7-6.91,.76-1.5,2.93-5.03c2.17-3.54,3.3-5.81,6.12-8.63s4.98-4.85,4.98-4.85c0,0-3.59,4.08-4.7,5.49s-2.58,3.69-3.84,5.73-2.42,4.64-4.86,9.36c-2.47,4.79-3.52,5.68-3.52,5.68l-.8-.83Z"/></g><g><path class="k" d="M528.56,87.91s.87,7.63,10.02,12.37c9.37,4.85,9.91,3.61,9.91,3.61,0,0-2.83-6.62-6.06-11.33-3.19-4.67-12.38-9.13-13.88-4.66Z"/><path class="g" d="M527.86,85.87s2.53,1.75,4.17,2.85,.91,.59,3.02,2.23c2.12,1.64,3.49,2.52,5.1,4.52s2.76,3.53,2.76,3.53c0,0-2.36-2.59-3.19-3.4s-2.19-1.91-3.4-2.86-2.8-1.88-5.66-3.77-3.39-2.65-3.39-2.65l.59-.45Z"/></g><g><path class="k" d="M541.08,45.27s14.39-.92,24.12-17.63,7.69-18.24,7.69-18.24c0,0-12.66,4.69-21.79,10.29-9.04,5.55-18.27,22.35-10.02,25.57Z"/><path class="g" d="M537.19,46.39s3.51-4.58,5.73-7.55,1.19-1.64,4.46-5.45,5.06-6.31,8.95-9.14,6.87-4.84,6.87-4.84c0,0-5.07,4.18-6.66,5.66s-3.78,3.92-5.68,6.11-3.78,5.08-7.59,10.25c-3.86,5.25-5.29,6.11-5.29,6.11l-.79-1.15Z"/></g><g><path class="k" d="M586.45,362.48s10.6,4.53,23.57-3.87c13.28-8.61,12.07-10.24,12.07-10.24,0,0-10.73-1.22-19.26-.52s-21.1,9.35-16.38,14.63Z"/><path class="g" d="M583.27,361.88s4.16-2,6.82-3.32,1.44-.74,5.15-2.28c3.71-1.54,5.88-2.67,9.68-3.29s6.65-.98,6.65-.98c0,0-5.13,1.15-6.8,1.63s-4.11,1.43-6.26,2.31-4.53,2.26-9.11,4.58c-4.65,2.35-5.98,2.45-5.98,2.45l-.15-1.1Z"/></g><g><path class="k" d="M497.43,128.21s8.96-.37,16.07,9.33c7.28,9.93,5.95,10.78,5.95,10.78,0,0-8.14-2.08-14.15-4.94-5.96-2.84-12.76-12.63-7.87-15.16Z"/><path class="g" d="M494.95,127.77s2.47,2.61,4.04,4.3,.84,.94,3.11,3.08,3.54,3.57,6.13,5.07,4.57,2.55,4.57,2.55c0,0-3.41-2.26-4.49-3.07s-2.6-2.18-3.91-3.41-2.67-2.89-5.36-5.85-3.67-3.43-3.67-3.43l-.42,.76Z"/></g><g><path class="k" d="M194.75,222.91s5.92-13.15,24.97-16.39c19.51-3.32,19.78-.8,19.78-.8,0,0-8.84,10.21-17.29,16.79-8.37,6.52-27.34,9.26-27.46,.41Z"/><path class="g" d="M192.34,226.16s5.53-1.68,9.09-2.72c3.56-1.04,1.96-.54,6.67-2.26,4.72-1.72,7.68-2.52,11.7-5.17,4.15-2.74,6.95-4.73,6.95-4.73,0,0-5.7,3.28-7.64,4.25s-5,2.17-7.72,3.18-6.08,1.76-12.26,3.51c-6.27,1.77-7.58,2.81-7.58,2.81l.8,1.15Z"/></g><g><path class="k" d="M376.04,72.02s3.72-9.74,17.34-12.87c13.94-3.21,14.24-1.41,14.24-1.41,0,0-5.95,7.74-11.77,12.84-5.77,5.06-19.34,7.82-19.8,1.44Z"/><path class="g" d="M374.43,74.47s3.92-1.44,6.44-2.34,1.39-.47,4.72-1.91,5.44-2.14,8.23-4.22,4.81-3.71,4.81-3.71c0,0-3.97,2.61-5.33,3.39s-3.52,1.77-5.44,2.61-4.31,1.52-8.7,3.04c-4.45,1.54-5.35,2.34-5.35,2.34l.62,.79Z"/></g><g><path class="k" d="M275.72,265.13s3.13-4.12,.88-10.69-3.15-6.37-3.15-6.37c0,0-1.7,4.54-2.32,8.33s1.78,10.21,4.59,8.73Z"/><path class="g" d="M275.11,266.45s-.42-2.03-.7-3.33-.17-.71-.43-2.49-.52-2.85-.38-4.58,.3-3,.3-3c0,0-.06,2.36-.03,3.14s.17,1.95,.33,2.98,.49,2.22,1,4.47,.42,2.87,.42,2.87l-.5-.05Z"/></g><g><path class="k" d="M399.56,37.73s5.6,3.19,13.34-.65c7.92-3.93,7.36-4.91,7.36-4.91,0,0-5.88-1.36-10.66-1.52-4.74-.15-12.31,3.85-10.03,7.08Z"/><path class="g" d="M397.83,37.2s2.44-.85,4-1.41,.85-.32,3.01-.94,3.44-1.11,5.59-1.21,3.76-.12,3.76-.12c0,0-2.92,.31-3.88,.47s-2.38,.53-3.62,.88-2.66,.96-5.35,1.96-3.48,.98-3.48,.98v-.62Z"/></g><g><path class="k" d="M204.56,160.34s-.9-7.02-9.39-11.26-9.17-3.2-9.17-3.2c0,0,2.7,6.05,5.72,10.35s11.52,8.25,12.84,4.11Z"/><path class="g" d="M205.23,162.21s-2.36-1.58-3.88-2.57-.84-.53-2.81-2.01-3.25-2.28-4.76-4.1-2.59-3.21-2.59-3.21c0,0,2.21,2.35,2.98,3.09s2.04,1.73,3.17,2.59,2.6,1.69,5.26,3.39,3.16,2.4,3.16,2.4l-.54,.42Z"/></g><g><path class="k" d="M333.18,200.15s-.9-7.02-9.39-11.26-9.17-3.2-9.17-3.2c0,0,2.7,6.05,5.72,10.35s11.52,8.25,12.84,4.11Z"/><path class="g" d="M333.86,202.02s-2.36-1.58-3.88-2.57-.84-.53-2.81-2.01-3.25-2.28-4.76-4.1-2.59-3.21-2.59-3.21c0,0,2.21,2.35,2.98,3.09s2.04,1.73,3.17,2.59,2.6,1.69,5.26,3.39,3.16,2.4,3.16,2.4l-.54,.42Z"/></g><g><path class="k" d="M74.19,450.05s16.38-.66,27.9-19.38c11.79-19.17,9.25-20.52,9.25-20.52,0,0-14.53,4.99-25.05,11.1-10.43,6.06-21.38,24.91-12.1,28.8Z"/><path class="g" d="M69.73,451.22s4.12-5.12,6.73-8.43,1.4-1.83,5.22-6.08,5.92-7.03,10.43-10.14c4.66-3.22,7.94-5.32,7.94-5.32,0,0-5.88,4.62-7.73,6.25s-4.41,4.35-6.63,6.79-4.44,5.67-8.91,11.45c-4.53,5.86-6.18,6.8-6.18,6.8l-.87-1.33Z"/></g><g><path class="k" d="M130.82,328.73s-.07-7.1-8.02-12.34c-8.15-5.36-8.76-4.28-8.76-4.28,0,0,1.97,6.36,4.48,10.99s10.5,9.59,12.31,5.62Z"/><path class="g" d="M131.26,330.68s-2.16-1.85-3.56-3.02-.78-.63-2.56-2.34-2.97-2.66-4.25-4.65-2.2-3.51-2.2-3.51c0,0,1.92,2.61,2.61,3.43s1.83,1.97,2.85,2.96,2.4,2,4.84,4.01,2.86,2.77,2.86,2.77l-.59,.36Z"/></g><g><path class="e" d="M346.73,199.52s7.42-12.27,24.4-9.14l16.98,3.12s-8.87,8.39-17.05,12.72c-8.18,4.33-25.92,.86-24.33-6.69Z"/><path class="h" d="M344.64,201.74s4.81,.94,8.04,.74c3.23-.2,1.79,.12,6.13-.44s6.74-.89,10.67-2.38,6.92-3.14,6.92-3.14c0,0-5.5,1.73-7.34,2.18s-4.5,1.23-7.04,1.26-5.5,1.17-11.07,.57c-5.57-.6-6.9-.14-6.9-.14l.6,1.34Z"/></g><g><path class="e" d="M472,161.5s10.69-8.11,24.39,.47l13.7,8.58s-10.61,4.23-19.23,5.18c-8.61,.94-22.85-8.2-18.86-14.22Z"/><path class="h" d="M469.41,162.72s3.86,2.48,6.74,3.42,1.51,.72,5.49,1.74,6.18,1.55,10.11,1.62,7.1-.34,7.1-.34c0,0-5.39-.4-7.14-.64s-4.34-.49-6.56-1.34c-2.22-.85-5.19-.88-9.83-3.33s-5.96-2.51-5.96-2.51l.06,1.38Z"/></g><g><path class="e" d="M271.88,287.26s12.3-8.77,27.43,1.34l15.13,10.12s-12.09,4.41-21.81,5.18c-9.72,.77-25.45-10-20.75-16.64Z"/><path class="h" d="M268.93,288.53s4.26,2.92,7.47,4.07,1.68,.87,6.12,2.14,6.9,1.95,11.32,2.16c4.57,.21,8-.14,8-.14,0,0-6.05-.63-8.02-.96s-4.87-.69-7.34-1.73c-2.47-1.03-5.81-1.17-10.95-4.07-5.14-2.91-6.62-3.02-6.62-3.02l.02,1.55Z"/></g><g><path class="e" d="M318.51,231.62s1.79-15.46-14.86-24.07l-16.65-8.61s2.04,13.1,6.18,22.25c4.14,9.15,21.67,17.97,25.33,10.43Z"/><path class="h" d="M318.83,234.92s-4.75-2.39-7.39-4.71-1.62-1.09-4.97-4.45-5.19-5.25-7.58-9.14c-2.47-4.02-3.85-7.29-3.85-7.29,0,0,3.58,5.14,4.85,6.75s3.05,4.05,5.21,5.76c2.16,1.71,3.94,4.66,9.12,7.85,5.18,3.19,6.02,4.47,6.02,4.47l-1.41,.75Z"/></g><g><path class="e" d="M387.53,434.69s13.02-8.52,8.99-26.82l-4.04-18.3s-8.76,9.95-13.14,18.99,.06,28.16,8.19,26.14Z"/><path class="h" d="M385.2,437.04s-1.2-5.18-1.11-8.69c.09-3.51-.2-1.94,.24-6.67,.44-4.73,.71-7.35,2.17-11.67,1.51-4.46,3.14-7.62,3.14-7.62,0,0-1.66,6.04-2.08,8.05s-1.16,4.93-1.09,7.69-1.06,6.01-.2,12.04c.86,6.02,.42,7.48,.42,7.48l-1.48-.6Z"/></g><g><path class="e" d="M110.93,353.09s7.76-15.65-6.55-31.06l-14.31-15.42s-2.82,14.6-1.92,25.84c.9,11.24,16.06,27.21,22.79,20.63Z"/><path class="h" d="M110.01,356.69s-4.11-4.33-6.01-7.78-1.3-1.76-3.56-6.59c-2.27-4.83-3.49-7.52-4.53-12.53-1.08-5.18-1.3-9.16-1.3-9.16,0,0,1.82,6.79,2.56,8.98s1.68,5.43,3.31,8.06c1.63,2.63,2.4,6.42,6.65,11.76,4.26,5.34,4.66,7,4.66,7l-1.77,.26Z"/></g><g><path class="e" d="M572.3,284.85s-.76-6.99-8.96-9.12l-8.2-2.13s2.21,5.57,4.95,9.18c2.74,3.62,11.35,5.75,12.2,2.06Z"/><path class="h" d="M572.77,286.27s-2.33-.58-3.73-1.33-.82-.32-2.64-1.46-2.81-1.79-4.25-3.27-2.43-2.83-2.43-2.83c0,0,2.09,1.91,2.81,2.49s1.75,1.48,2.87,2.02,2.2,1.66,4.81,2.55,3.1,1.37,3.1,1.37l-.54,.47Z"/></g><g><path class="e" d="M262.16,441.84s17.71-2.77,28.38,16l10.67,18.77s-15.17-1.75-25.89-6.09-21.68-24.12-13.16-28.67Z"/><path class="h" d="M258.35,441.63s2.97,5.36,5.76,8.29c2.79,2.93,1.32,1.81,5.35,5.52s6.28,5.74,10.86,8.3,8.57,4.1,8.57,4.1c0,0-6.08-3.88-8-5.28s-4.8-3.32-6.87-5.73c-2.07-2.41-5.54-4.33-9.45-10.14-3.91-5.81-5.42-6.72-5.42-6.72l-.8,1.66Z"/></g><g><path class="e" d="M92.03,474.88s22.03-1.28,32.88,22.98l10.84,24.27s-18.37-3.95-31-10.55c-12.63-6.6-23.7-32.14-12.72-36.7Z"/><path class="h" d="M87.39,474.16s3,6.92,6.07,10.84,1.41,2.38,5.9,7.4,7.01,7.78,12.32,11.47,10.01,6.04,10.01,6.04c0,0-6.99-5.48-9.17-7.42s-5.48-4.64-7.73-7.84c-2.25-3.2-6.28-5.96-10.38-13.55-4.1-7.59-5.84-8.88-5.84-8.88l-1.18,1.93Z"/></g><g><path class="e" d="M112.94,378.77s17.9-4.6,30.72,13.59l12.82,18.19s-15.74-.28-27.17-3.68c-11.44-3.39-24.65-22.59-16.36-28.11Z"/><path class="h" d="M109.02,378.93s3.58,5.2,6.73,7.93c3.15,2.73,1.54,1.73,6.04,5.13s7.02,5.26,11.97,7.44c5.12,2.25,9.2,3.35,9.2,3.35,0,0-6.63-3.38-8.73-4.62s-5.25-2.93-7.62-5.2c-2.36-2.26-6.12-3.89-10.71-9.46-4.59-5.58-6.23-6.36-6.23-6.36l-.66,1.78Z"/></g></g></g></svg>